<svg width="232" height="244" viewBox="0 0 232 244" fill="none" xmlns="http://www.w3.org/2000/svg">
<g clip-path="url(#clip0_208_3)">
<path d="M229.5 122C229.5 184.684 178.684 235.5 116 235.5C53.3157 235.5 2.5 184.684 2.5 122C2.5 59.3157 53.3157 8.5 116 8.5C178.684 8.5 229.5 59.3157 229.5 122Z" fill="#475569" stroke="white" stroke-width="7"/>
<path d="M186.523 130.68H136.683L171.963 165.96L159.363 178.28L124.083 143V193.12L106.443 192.84V143L71.1628 178.56L58.8428 165.96L94.1228 130.68H44.0028V113.04H94.1228L58.8428 77.48L71.1628 65.16L106.443 100.72V50.6H124.083V100.72L159.643 65.16L171.963 77.48L136.683 113.04H186.523V130.68Z" fill="#D8D8D8"/>
</g>
<defs>
<clipPath id="clip0_208_3">
<rect width="232" height="244" fill="white"/>
</clipPath>
</defs>
</svg>
